<mxfile host="app.diagrams.net" modified="2022-03-22T22:42:21.770Z" agent="5.0 (Windows NT 10.0; Win64; x64) AppleWebKit/537.36 (KHTML, like Gecko) Chrome/99.0.4844.74 Safari/537.36" etag="dbqKKbyq3HB68eXgn_uA" version="17.1.4" type="github">
  <diagram id="4phRcUqwEZl8Iw8vmw-g" name="Page-1">
    <mxGraphModel dx="917" dy="865" grid="1" gridSize="10" guides="1" tooltips="1" connect="1" arrows="1" fold="1" page="1" pageScale="1" pageWidth="850" pageHeight="1100" math="0" shadow="0">
      <root>
        <mxCell id="0" />
        <mxCell id="1" parent="0" />
        <mxCell id="3DuwpOpWtxzq4N4OtXIN-1" value="" style="rounded=0;whiteSpace=wrap;html=1;strokeWidth=2;strokeColor=#000000;" vertex="1" parent="1">
          <mxGeometry x="685" y="700" width="425" height="900" as="geometry" />
        </mxCell>
        <mxCell id="3DuwpOpWtxzq4N4OtXIN-2" value="LoremIpsum" style="text;html=1;strokeColor=none;fillColor=none;align=center;verticalAlign=middle;whiteSpace=wrap;rounded=0;fontSize=16;" vertex="1" parent="1">
          <mxGeometry x="867.5" y="710" width="60" height="30" as="geometry" />
        </mxCell>
        <mxCell id="3DuwpOpWtxzq4N4OtXIN-3" value="Nutzer" style="shape=umlActor;verticalLabelPosition=bottom;verticalAlign=top;html=1;outlineConnect=0;fontSize=16;strokeColor=#000000;strokeWidth=2;" vertex="1" parent="1">
          <mxGeometry x="575" y="750" width="60" height="100" as="geometry" />
        </mxCell>
        <mxCell id="3DuwpOpWtxzq4N4OtXIN-5" value="" style="endArrow=block;dashed=1;endFill=0;endSize=12;html=1;rounded=0;fontSize=16;" edge="1" parent="1" source="3DuwpOpWtxzq4N4OtXIN-6" target="3DuwpOpWtxzq4N4OtXIN-3">
          <mxGeometry width="160" relative="1" as="geometry">
            <mxPoint x="545" y="960" as="sourcePoint" />
            <mxPoint x="655" y="1170" as="targetPoint" />
            <Array as="points">
              <mxPoint x="545" y="800" />
            </Array>
          </mxGeometry>
        </mxCell>
        <mxCell id="3DuwpOpWtxzq4N4OtXIN-6" value="Anonym" style="shape=umlActor;verticalLabelPosition=bottom;verticalAlign=top;html=1;outlineConnect=0;fontSize=16;strokeColor=#000000;strokeWidth=2;" vertex="1" parent="1">
          <mxGeometry x="515" y="960" width="60" height="100" as="geometry" />
        </mxCell>
        <mxCell id="3DuwpOpWtxzq4N4OtXIN-7" value="Mit Account" style="shape=umlActor;verticalLabelPosition=bottom;verticalAlign=top;html=1;outlineConnect=0;fontSize=16;strokeColor=#000000;strokeWidth=2;" vertex="1" parent="1">
          <mxGeometry x="445" y="1120" width="60" height="100" as="geometry" />
        </mxCell>
        <mxCell id="3DuwpOpWtxzq4N4OtXIN-8" value="" style="endArrow=block;dashed=1;endFill=0;endSize=12;html=1;rounded=0;fontSize=16;entryX=0;entryY=0.3333333333333333;entryDx=0;entryDy=0;entryPerimeter=0;" edge="1" parent="1" source="3DuwpOpWtxzq4N4OtXIN-7" target="3DuwpOpWtxzq4N4OtXIN-3">
          <mxGeometry width="160" relative="1" as="geometry">
            <mxPoint x="555" y="970" as="sourcePoint" />
            <mxPoint x="585" y="810" as="targetPoint" />
            <Array as="points">
              <mxPoint x="475" y="783" />
            </Array>
          </mxGeometry>
        </mxCell>
        <mxCell id="3DuwpOpWtxzq4N4OtXIN-9" value="include" style="edgeStyle=orthogonalEdgeStyle;rounded=0;orthogonalLoop=1;jettySize=auto;html=1;dashed=1;" edge="1" parent="1" source="3DuwpOpWtxzq4N4OtXIN-10" target="3DuwpOpWtxzq4N4OtXIN-13">
          <mxGeometry relative="1" as="geometry" />
        </mxCell>
        <object label="UC2: Erstellt Daten Vorlage" id="3DuwpOpWtxzq4N4OtXIN-10">
          <mxCell style="ellipse;whiteSpace=wrap;html=1;verticalAlign=middle;" vertex="1" parent="1">
            <mxGeometry x="787.5" y="840" width="225" height="60" as="geometry" />
          </mxCell>
        </object>
        <mxCell id="3DuwpOpWtxzq4N4OtXIN-11" value="UC1:Download der randomisierten Daten" style="ellipse;whiteSpace=wrap;html=1;" vertex="1" parent="1">
          <mxGeometry x="783.75" y="770" width="232.5" height="60" as="geometry" />
        </mxCell>
        <mxCell id="3DuwpOpWtxzq4N4OtXIN-13" value="Ausgabeformat&lt;br&gt;auswÃ¤hlen" style="ellipse;whiteSpace=wrap;html=1;" vertex="1" parent="1">
          <mxGeometry x="940" y="985" width="120" height="60" as="geometry" />
        </mxCell>
        <mxCell id="3DuwpOpWtxzq4N4OtXIN-14" value="Testdaten Struktur&lt;br&gt;selektieren" style="ellipse;whiteSpace=wrap;html=1;" vertex="1" parent="1">
          <mxGeometry x="720" y="985" width="120" height="60" as="geometry" />
        </mxCell>
        <mxCell id="3DuwpOpWtxzq4N4OtXIN-15" value="include" style="edgeStyle=orthogonalEdgeStyle;rounded=0;orthogonalLoop=1;jettySize=auto;html=1;dashed=1;" edge="1" parent="1" source="3DuwpOpWtxzq4N4OtXIN-10" target="3DuwpOpWtxzq4N4OtXIN-14">
          <mxGeometry relative="1" as="geometry">
            <mxPoint x="890" y="915" as="sourcePoint" />
            <mxPoint x="1010" y="995" as="targetPoint" />
          </mxGeometry>
        </mxCell>
        <mxCell id="3DuwpOpWtxzq4N4OtXIN-18" value="include" style="edgeStyle=orthogonalEdgeStyle;rounded=0;orthogonalLoop=1;jettySize=auto;html=1;dashed=1;" edge="1" parent="1" source="3DuwpOpWtxzq4N4OtXIN-19" target="3DuwpOpWtxzq4N4OtXIN-20">
          <mxGeometry relative="1" as="geometry" />
        </mxCell>
        <mxCell id="3DuwpOpWtxzq4N4OtXIN-19" value="UC3: Accountdaten erfassen" style="ellipse;whiteSpace=wrap;html=1;verticalAlign=middle;" vertex="1" parent="1">
          <mxGeometry x="720" y="1060" width="155" height="60" as="geometry" />
        </mxCell>
        <mxCell id="3DuwpOpWtxzq4N4OtXIN-20" value="Aktivierungsmail&lt;br&gt;versenden" style="ellipse;whiteSpace=wrap;html=1;" vertex="1" parent="1">
          <mxGeometry x="940" y="1060" width="120" height="60" as="geometry" />
        </mxCell>
        <mxCell id="3DuwpOpWtxzq4N4OtXIN-24" value="Mail Provider" style="rounded=0;whiteSpace=wrap;html=1;fontSize=16;strokeColor=#000000;strokeWidth=1;" vertex="1" parent="1">
          <mxGeometry x="1155" y="1060" width="120" height="60" as="geometry" />
        </mxCell>
        <mxCell id="3DuwpOpWtxzq4N4OtXIN-25" value="" style="endArrow=none;html=1;rounded=0;fontSize=16;exitX=0.5;exitY=0.5;exitDx=0;exitDy=0;exitPerimeter=0;entryX=0;entryY=0.5;entryDx=0;entryDy=0;" edge="1" parent="1" source="3DuwpOpWtxzq4N4OtXIN-3" target="3DuwpOpWtxzq4N4OtXIN-11">
          <mxGeometry width="50" height="50" relative="1" as="geometry">
            <mxPoint x="745" y="850" as="sourcePoint" />
            <mxPoint x="795" y="800" as="targetPoint" />
          </mxGeometry>
        </mxCell>
        <mxCell id="3DuwpOpWtxzq4N4OtXIN-26" value="" style="endArrow=none;html=1;rounded=0;fontSize=16;exitX=0.5;exitY=0.5;exitDx=0;exitDy=0;exitPerimeter=0;entryX=0;entryY=0.5;entryDx=0;entryDy=0;" edge="1" parent="1" source="3DuwpOpWtxzq4N4OtXIN-3" target="3DuwpOpWtxzq4N4OtXIN-10">
          <mxGeometry width="50" height="50" relative="1" as="geometry">
            <mxPoint x="615" y="809.9999999999998" as="sourcePoint" />
            <mxPoint x="842.5" y="789.9999999999998" as="targetPoint" />
          </mxGeometry>
        </mxCell>
        <mxCell id="3DuwpOpWtxzq4N4OtXIN-27" value="" style="endArrow=none;html=1;rounded=0;fontSize=16;exitX=0.5;exitY=0.5;exitDx=0;exitDy=0;exitPerimeter=0;entryX=0;entryY=0.5;entryDx=0;entryDy=0;" edge="1" parent="1" source="3DuwpOpWtxzq4N4OtXIN-6" target="3DuwpOpWtxzq4N4OtXIN-19">
          <mxGeometry width="50" height="50" relative="1" as="geometry">
            <mxPoint x="645" y="1000" as="sourcePoint" />
            <mxPoint x="695" y="950" as="targetPoint" />
          </mxGeometry>
        </mxCell>
        <mxCell id="3DuwpOpWtxzq4N4OtXIN-28" value="" style="endArrow=none;html=1;rounded=0;fontSize=16;exitX=1;exitY=0.5;exitDx=0;exitDy=0;entryX=0;entryY=0.5;entryDx=0;entryDy=0;" edge="1" parent="1" source="3DuwpOpWtxzq4N4OtXIN-20" target="3DuwpOpWtxzq4N4OtXIN-24">
          <mxGeometry width="50" height="50" relative="1" as="geometry">
            <mxPoint x="1065" y="1039.9999999999998" as="sourcePoint" />
            <mxPoint x="1292.5" y="1019.9999999999998" as="targetPoint" />
          </mxGeometry>
        </mxCell>
        <mxCell id="3DuwpOpWtxzq4N4OtXIN-29" value="UC4: Externe Datensource&amp;nbsp;&lt;br&gt;in Vorlage einbauen" style="ellipse;whiteSpace=wrap;html=1;verticalAlign=middle;" vertex="1" parent="1">
          <mxGeometry x="720" y="1170" width="185" height="60" as="geometry" />
        </mxCell>
        <mxCell id="3DuwpOpWtxzq4N4OtXIN-30" value="Mustererkennung&lt;br&gt;um auf eigene Datentypen zu mappen" style="ellipse;whiteSpace=wrap;html=1;" vertex="1" parent="1">
          <mxGeometry x="927.5" y="1250" width="150" height="80" as="geometry" />
        </mxCell>
        <mxCell id="3DuwpOpWtxzq4N4OtXIN-31" value="include" style="edgeStyle=orthogonalEdgeStyle;rounded=0;orthogonalLoop=1;jettySize=auto;html=1;dashed=1;" edge="1" parent="1" source="3DuwpOpWtxzq4N4OtXIN-29" target="3DuwpOpWtxzq4N4OtXIN-30">
          <mxGeometry relative="1" as="geometry">
            <mxPoint x="1055" y="1275" as="sourcePoint" />
            <mxPoint x="1165" y="1365" as="targetPoint" />
          </mxGeometry>
        </mxCell>
        <mxCell id="3DuwpOpWtxzq4N4OtXIN-32" value="" style="endArrow=none;html=1;rounded=0;fontSize=16;exitX=0.5;exitY=0.5;exitDx=0;exitDy=0;exitPerimeter=0;entryX=0;entryY=0.5;entryDx=0;entryDy=0;" edge="1" parent="1" source="3DuwpOpWtxzq4N4OtXIN-7" target="3DuwpOpWtxzq4N4OtXIN-29">
          <mxGeometry width="50" height="50" relative="1" as="geometry">
            <mxPoint x="525" y="1190" as="sourcePoint" />
            <mxPoint x="700" y="1270" as="targetPoint" />
          </mxGeometry>
        </mxCell>
        <mxCell id="3DuwpOpWtxzq4N4OtXIN-33" value="Externe Datenquelle" style="rounded=0;whiteSpace=wrap;html=1;fontSize=16;strokeColor=#000000;strokeWidth=1;" vertex="1" parent="1">
          <mxGeometry x="1155" y="1260" width="120" height="60" as="geometry" />
        </mxCell>
        <mxCell id="3DuwpOpWtxzq4N4OtXIN-34" value="" style="endArrow=none;html=1;rounded=0;fontSize=16;exitX=0;exitY=0.5;exitDx=0;exitDy=0;entryX=1;entryY=0.5;entryDx=0;entryDy=0;" edge="1" parent="1" source="3DuwpOpWtxzq4N4OtXIN-33" target="3DuwpOpWtxzq4N4OtXIN-30">
          <mxGeometry width="50" height="50" relative="1" as="geometry">
            <mxPoint x="485" y="1180" as="sourcePoint" />
            <mxPoint x="729.9999999999941" y="1210" as="targetPoint" />
          </mxGeometry>
        </mxCell>
        <mxCell id="3DuwpOpWtxzq4N4OtXIN-38" value="UC5: Wiederverwendung der erstellten&lt;br&gt;Vorlagen" style="ellipse;whiteSpace=wrap;html=1;" vertex="1" parent="1">
          <mxGeometry x="712" y="1250" width="201" height="100" as="geometry" />
        </mxCell>
        <mxCell id="3DuwpOpWtxzq4N4OtXIN-39" value="" style="endArrow=none;html=1;rounded=0;fontSize=16;exitX=0.5;exitY=0.5;exitDx=0;exitDy=0;exitPerimeter=0;entryX=0;entryY=0.5;entryDx=0;entryDy=0;" edge="1" parent="1" source="3DuwpOpWtxzq4N4OtXIN-7" target="3DuwpOpWtxzq4N4OtXIN-38">
          <mxGeometry width="50" height="50" relative="1" as="geometry">
            <mxPoint x="485" y="1180" as="sourcePoint" />
            <mxPoint x="730" y="1210" as="targetPoint" />
          </mxGeometry>
        </mxCell>
        <mxCell id="3DuwpOpWtxzq4N4OtXIN-40" value="UC6: Aktivierung der REST API" style="ellipse;whiteSpace=wrap;html=1;" vertex="1" parent="1">
          <mxGeometry x="723.5" y="1360" width="178" height="80" as="geometry" />
        </mxCell>
        <mxCell id="3DuwpOpWtxzq4N4OtXIN-41" value="" style="endArrow=none;html=1;rounded=0;fontSize=16;exitX=0.5;exitY=0.5;exitDx=0;exitDy=0;exitPerimeter=0;entryX=0;entryY=0.5;entryDx=0;entryDy=0;" edge="1" parent="1" source="3DuwpOpWtxzq4N4OtXIN-7" target="3DuwpOpWtxzq4N4OtXIN-40">
          <mxGeometry width="50" height="50" relative="1" as="geometry">
            <mxPoint x="485" y="1180" as="sourcePoint" />
            <mxPoint x="722" y="1310" as="targetPoint" />
          </mxGeometry>
        </mxCell>
        <mxCell id="3DuwpOpWtxzq4N4OtXIN-42" value="UC7: Suchen Ã¼ber alle erstellen&lt;br&gt;Daten Vorlage" style="ellipse;whiteSpace=wrap;html=1;" vertex="1" parent="1">
          <mxGeometry x="723.5" y="1450" width="178" height="80" as="geometry" />
        </mxCell>
        <mxCell id="3DuwpOpWtxzq4N4OtXIN-43" value="" style="endArrow=none;html=1;rounded=0;fontSize=16;exitX=0.5;exitY=0.5;exitDx=0;exitDy=0;exitPerimeter=0;entryX=0;entryY=0.5;entryDx=0;entryDy=0;" edge="1" parent="1" source="3DuwpOpWtxzq4N4OtXIN-7" target="3DuwpOpWtxzq4N4OtXIN-42">
          <mxGeometry width="50" height="50" relative="1" as="geometry">
            <mxPoint x="485" y="1180.0000000000002" as="sourcePoint" />
            <mxPoint x="733.4999999999984" y="1410" as="targetPoint" />
          </mxGeometry>
        </mxCell>
      </root>
    </mxGraphModel>
  </diagram>
</mxfile>
